# xmcd
#
# Track frame offsets:
#	150
#	14270
#	27131
#	39826
#	53000
#	67262
#	81400
#	94607
#	110059
#	140908
#	177096
#
# Disc length: 2850 seconds
# Revision: 0
# Processed by: cddbd v1.5.2PL0 Copyright (c) Steve Scherf et al.
# Submitted via: dBpowerAMP V12.0
#
DISCID=910b200b
DTITLE=I-Roy - The Observer Book Of Roy Samual Reid
DYEAR=2012
DGENRE=Reggae
TTITLE0=Jah Come Here
TTITLE1=Step On The Dragon
TTITLE2=Camp Road Skanking
TTITLE3=Fresh And Clean
TTITLE4=Native Land
TTITLE5=Point Blank Observer Style
TTITLE6=Sister Maggie Breast
TTITLE7=Water Rate
TTITLE8=Jamaican Girl - Observer In Fine Style
TTITLE9=Jah Is My Light - Wicked Eat Dirt [Leroy Smart-I Roy]
TTITLE10=Roots Man - Observer Mix Version
EXTD=
EXTT0=
EXTT1=
EXTT2=
EXTT3=
EXTT4=
EXTT5=
EXTT6=
EXTT7=
EXTT8=
EXTT9=
EXTT10=
PLAYORDER=
